<?xml version="1.0" standalone="no"?>
<!DOCTYPE svg PUBLIC "-//W3C//DTD SVG 20010904//EN"
 "http://www.w3.org/TR/2001/REC-SVG-20010904/DTD/svg10.dtd">
<svg version="1.0" xmlns="http://www.w3.org/2000/svg"
 width="700.000000pt" height="700.000000pt" viewBox="0 0 700.000000 700.000000"
 preserveAspectRatio="xMidYMid meet">
<metadata>
Created by potrace 1.11, written by Peter Selinger 2001-2013
</metadata>
<g transform="translate(0.000000,700.000000) scale(0.100000,-0.100000)"
fill="#000000" stroke="none">
<path d="M6008 6975 c-2 -1 -28 -5 -58 -9 -273 -31 -529 -119 -835 -286 -122
-66 -384 -240 -470 -312 -11 -9 -63 -51 -115 -93 -325 -262 -680 -637 -881
-930 -273 -399 -439 -763 -640 -1412 -12 -40 -24 -72 -25 -70 -1 1 -5 31 -8
67 -9 97 -25 215 -42 305 -8 44 -17 96 -20 115 -25 155 -118 409 -234 635
-208 410 -500 769 -835 1027 -329 253 -661 414 -980 474 -111 21 -355 24 -435
5 -199 -47 -332 -137 -400 -271 -54 -106 -20 -318 78 -490 65 -114 184 -273
303 -405 15 -16 36 -39 46 -51 65 -76 130 -149 139 -158 5 -6 32 -36 59 -66
51 -58 281 -300 462 -486 463 -476 705 -794 844 -1109 24 -54 58 -173 73 -260
3 -16 8 -39 10 -50 20 -98 26 -315 13 -465 -15 -168 -33 -256 -115 -570 -41
-153 -68 -272 -78 -340 -3 -19 -11 -73 -19 -120 -32 -197 -36 -472 -9 -615 30
-159 61 -259 113 -365 152 -311 508 -592 821 -648 49 -9 200 -8 240 1 8 2 31
7 50 11 64 15 140 68 140 99 0 35 -25 48 -100 52 -77 5 -82 6 -160 24 -245 56
-480 237 -630 485 -72 119 -145 308 -165 426 -4 25 -9 54 -11 65 -15 75 -19
142 -19 300 0 196 7 294 35 465 5 30 12 75 15 100 3 25 12 81 20 125 8 44 17
96 20 115 3 19 8 46 10 60 14 84 25 161 29 205 3 28 9 82 13 120 10 91 10 501
0 585 -11 99 -16 130 -27 185 -5 28 -11 61 -14 75 -9 51 -48 183 -86 288 -163
454 -405 854 -760 1262 -31 36 -59 72 -63 82 -6 17 21 48 43 48 10 0 134 -82
150 -99 3 -3 34 -31 70 -61 83 -69 257 -243 340 -340 36 -41 67 -77 70 -80 12
-12 150 -190 196 -255 245 -340 475 -747 612 -1085 l39 -95 -37 -185 c-45
-228 -89 -455 -96 -495 -2 -16 -13 -77 -24 -135 -11 -58 -21 -116 -24 -130 -2
-14 -7 -41 -11 -60 -5 -28 -2 -39 12 -51 10 -8 25 -15 33 -15 21 1 173 308
304 616 136 320 286 651 331 731 19 33 35 63 35 66 0 8 101 175 159 263 119
182 294 376 468 521 48 41 90 76 93 79 3 4 57 44 120 91 279 208 573 375 858
488 81 33 107 39 122 31 39 -21 24 -53 -67 -141 -196 -190 -411 -452 -593
-719 -41 -61 -150 -242 -150 -250 0 -6 -3 -10 -7 -10 -5 0 -13 -10 -19 -23 -6
-12 -42 -83 -80 -157 -123 -239 -221 -490 -270 -690 -2 -8 -10 -44 -19 -80
-18 -75 -53 -252 -90 -460 -14 -80 -28 -154 -30 -165 -1 -11 -13 -67 -24 -125
-12 -58 -24 -118 -27 -135 -11 -63 -76 -336 -110 -460 -129 -473 -293 -814
-491 -1025 -39 -42 -90 -89 -112 -104 -51 -35 -56 -52 -27 -80 22 -23 24 -24
102 -11 267 43 452 170 616 425 121 187 235 487 273 719 3 19 7 37 9 40 2 3 7
35 11 71 4 36 8 67 10 70 3 5 13 78 20 150 2 25 7 68 10 95 13 103 14 122 20
185 15 174 21 233 30 310 3 19 7 60 10 90 3 30 8 66 10 80 61 383 107 546 214
765 49 99 176 306 200 325 4 3 22 25 41 50 78 101 326 355 484 495 43 39 84
75 90 80 6 6 74 64 151 130 77 66 142 122 145 126 3 3 28 25 55 49 42 35 166
148 276 250 15 14 62 57 105 95 421 381 723 721 905 1020 198 325 211 578 37
756 -102 105 -285 185 -503 219 -62 10 -359 22 -367 15z"/>
</g>
</svg>
